<svg xmlns="http://www.w3.org/2000/svg" viewBox="0 0 100 100" fill="none">
  <defs>
    <linearGradient id="spiralGrad1" x1="0%" y1="0%" x2="100%" y2="100%">
      <stop offset="0%" stop-color="#10B981" />
      <stop offset="100%" stop-color="#059669" />
    </linearGradient>
    <linearGradient id="spiralGrad2" x1="0%" y1="100%" x2="100%" y2="0%">
      <stop offset="0%" stop-color="#14B8A6" />
      <stop offset="100%" stop-color="#10B981" />
    </linearGradient>
    <linearGradient id="spiralGrad3" x1="100%" y1="0%" x2="0%" y2="100%">
      <stop offset="0%" stop-color="#2DD4BF" />
      <stop offset="100%" stop-color="#14B8A6" />
    </linearGradient>
    <linearGradient id="spiralGrad4" x1="100%" y1="100%" x2="0%" y2="0%">
      <stop offset="0%" stop-color="#0D9488" />
      <stop offset="100%" stop-color="#10B981" />
    </linearGradient>
    <linearGradient id="spiralGrad5" x1="50%" y1="0%" x2="50%" y2="100%">
      <stop offset="0%" stop-color="#34D399" />
      <stop offset="100%" stop-color="#059669" />
    </linearGradient>
  </defs>
  <!-- Blade 1 - Top -->
  <path 
    d="M50 8 C65 8, 78 18, 82 32 C78 28, 68 26, 55 30 C48 32, 44 38, 50 50 C42 42, 38 30, 50 8Z" 
    fill="url(#spiralGrad1)"
  />
  <!-- Blade 2 - Top Right -->
  <path 
    d="M82 32 C92 45, 92 62, 82 75 C80 68, 74 60, 65 55 C58 52, 52 52, 50 50 C60 48, 72 42, 82 32Z" 
    fill="url(#spiralGrad2)"
  />
  <!-- Blade 3 - Bottom Right -->
  <path 
    d="M82 75 C72 88, 55 94, 40 90 C48 86, 55 78, 55 68 C56 60, 52 54, 50 50 C58 56, 72 66, 82 75Z" 
    fill="url(#spiralGrad3)"
  />
  <!-- Blade 4 - Bottom Left -->
  <path 
    d="M40 90 C25 86, 12 72, 12 55 C18 62, 28 66, 40 64 C48 62, 50 56, 50 50 C48 60, 42 78, 40 90Z" 
    fill="url(#spiralGrad4)"
  />
  <!-- Blade 5 - Top Left -->
  <path 
    d="M12 55 C12 38, 24 22, 42 16 C38 24, 36 35, 42 45 C46 50, 48 50, 50 50 C42 48, 22 48, 12 55Z" 
    fill="url(#spiralGrad5)"
  />
  <!-- Center glow -->
  <circle cx="50" cy="50" r="8" fill="url(#spiralGrad1)" opacity="0.6" />
  <circle cx="50" cy="50" r="4" fill="#fff" opacity="0.8" />
</svg>
